<?xml version="1.0" encoding="utf-8"?>
<!-- Generator: Adobe Illustrator 23.0.6, SVG Export Plug-In . SVG Version: 6.00 Build 0)  -->
<svg version="1.1" id="Ebene_1" xmlns="http://www.w3.org/2000/svg" xmlns:xlink="http://www.w3.org/1999/xlink" x="0px" y="0px"
	 viewBox="0 0 1710 915" style="enable-background:new 0 0 1710 915;" xml:space="preserve">
<style type="text/css">
	.st0{fill:none;}
	.st1{fill:none;stroke:#000000;stroke-width:8;stroke-miterlimit:10;}
	.st2{fill:url(#SVGID_1_);}
	.st3{fill:#FFFFFF;}
	.st4{fill:url(#SVGID_2_);}
</style>
<pattern  x="28" y="881.5" width="56" height="55" patternUnits="userSpaceOnUse" id="Muster_schwarz" viewBox="0 -55 56 55" style="overflow:visible;">
	<g>
		<rect y="-55" class="st0" width="56" height="55"/>
		<rect y="-55" class="st0" width="56" height="55"/>
		<circle cx="14.2" cy="-14" r="2.8"/>
		<circle cx="41.8" cy="-14" r="2.8"/>
		<circle cx="14.2" cy="-41" r="2.8"/>
		<circle cx="41.8" cy="-41" r="2.8"/>
	</g>
</pattern>
<pattern  x="28" y="881.5" width="94.1" height="94.1" patternUnits="userSpaceOnUse" id="Streifen_RZ" viewBox="98 -192.1 94.1 94.1" style="overflow:visible;">
	<g>
		<rect x="98" y="-192.1" class="st0" width="94.1" height="94.1"/>
		<rect x="98" y="-192.1" class="st0" width="94.1" height="94.1"/>
		<line class="st1" x1="190.9" y1="-287.3" x2="287.3" y2="-190.9"/>
		<line class="st1" x1="165.9" y1="-265.3" x2="262.3" y2="-168.9"/>
		<line class="st1" x1="96.9" y1="-287.3" x2="193.2" y2="-190.9"/>
		<line class="st1" x1="71.9" y1="-265.3" x2="168.2" y2="-168.9"/>
		<line class="st1" x1="2.8" y1="-287.3" x2="99.2" y2="-190.9"/>
		<line class="st1" x1="190.9" y1="-193.2" x2="287.3" y2="-96.9"/>
		<line class="st1" x1="165.9" y1="-171.2" x2="262.3" y2="-74.9"/>
		<line class="st1" x1="96.9" y1="-193.2" x2="193.2" y2="-96.9"/>
		<line class="st1" x1="71.9" y1="-171.2" x2="168.2" y2="-74.9"/>
		<line class="st1" x1="2.8" y1="-193.2" x2="99.2" y2="-96.9"/>
		<line class="st1" x1="190.9" y1="-99.2" x2="287.3" y2="-2.8"/>
		<line class="st1" x1="96.9" y1="-99.2" x2="193.2" y2="-2.8"/>
		<line class="st1" x1="2.8" y1="-99.2" x2="99.2" y2="-2.8"/>
	</g>
</pattern>
<title>DAN_4396_d2p_Relaunch_Icons_DAN_4396_d2p_Relaunch_Service</title>
<g>
	<g>
		
			<pattern  id="SVGID_1_" xlink:href="#Muster_schwarz" patternTransform="matrix(1.1692 -0.4698 -0.4698 -1.1692 -2996.8713 -21799.0254)">
		</pattern>
		<path class="st2" d="M198,452.7h626.5c93.9,0,170,76.1,170,170v104.1c0,93.9-76.1,170-170,170H198c-93.9,0-170-76.1-170-170V622.7
			C28,528.8,104.1,452.7,198,452.7z"/>
		<path class="st3" d="M353.3,736.9l746.4,1.3c13,0,23.5-10.5,23.6-23.5c0,0,0,0,0,0l14.4-508.1l-32.8-25.5c-9-7-20-10.8-31.4-10.8
			L327.4,170c-12.8,0-23.1,10.3-23.2,23.1c0,0,0,0,0,0l-0.2,482c0,16.4,6.6,32,18.4,43.4l15.5,12.8
			C342.3,734.9,347.7,736.9,353.3,736.9z"/>
		<path d="M1099.7,741.2L1099.7,741.2l-746.4-1.3c-6.3,0-12.5-2.2-17.4-6.3l-15.6-13C308,708.7,301,692.3,301,675.1l0.2-482
			c0-14.4,11.7-26.1,26.2-26.1l746.1,0.3c12,0,23.7,4,33.2,11.4l34,26.4v1.5l-14.4,508.1C1126.2,729.3,1114.4,741.1,1099.7,741.2
			L1099.7,741.2z M353.3,733.9l746.4,1.3l0,0c11.3,0,20.5-9.2,20.5-20.5l14.3-506.7l-31.6-24.5c-8.5-6.6-18.8-10.1-29.5-10.1
			L327.4,173c-11.1,0-20.1,9-20.1,20.1l-0.2,482c0,15.5,6.3,30.3,17.4,41.1l15.4,12.8C343.6,732.2,348.3,733.9,353.3,733.9
			L353.3,733.9z"/>
		<pattern  id="SVGID_2_" xlink:href="#Streifen_RZ" patternTransform="matrix(-0.73 0 0 -0.73 -12774.6504 -15103.0205)">
		</pattern>
		<path class="st4" d="M365.1,736.9l734.6,1.2c13,0,23.5-10.5,23.6-23.5c0,0,0,0,0,0l14.4-508.1l-32.8-25.5c-9-7-20-10.8-31.4-10.8
			L327.4,170c-12.8,0-23.1,10.3-23.2,23.1c0,0,0,0,0,0l-0.2,482c0,16.4,6.6,32,18.4,43.4l6.4,5.3C339,732.2,351.8,736.9,365.1,736.9
			z"/>
		<path class="st3" d="M353.2,195.3h761.2c12.7,0,23.1,10.3,23.1,23.1c0,0,0,0,0,0V636l0,0H330.1l0,0V218.3
			C330.1,205.6,340.5,195.2,353.2,195.3L353.2,195.3z"/>
		<path d="M1140.3,639.2L327,638.8l0.2-420.7c0-14.4,11.7-26,26.1-26.1l761.2,0.3c14.4,0,26,11.7,26,26.1L1140.3,639.2z M333,632.9
			l801.3,0.3l0.2-414.7c0-11.1-8.9-20-20-20.1l-761.2-0.3c-11.1,0-20,9-20.1,20.1L333,632.9z"/>
		<polyline class="st3" points="834.8,862.3 801.6,734.7 663.6,734.2 629.5,861.6 		"/>
		<polygon points="831.9,863.1 799.3,737.7 665.9,737.2 632.4,862.4 626.6,860.8 661.2,731.2 803.9,731.7 837.7,861.6 		"/>
		<path class="st3" d="M330,630.8v83.3c0,12.8,10.4,23.2,23.1,23.2l746.8,0.3c12.8,0,23.1-10.4,23.2-23.1l14.2-83.3L330,630.8z"/>
		<path d="M1099.9,740.6l-746.8-0.3c-14.4,0-26.1-11.7-26.1-26.2v-86.3l813.8,0.3l-14.8,86.5
			C1125.9,729.1,1114.3,740.6,1099.9,740.6z M333,633.8v80.3c0,11.1,9,20.1,20.1,20.2l746.8,0.3c11.1,0,20.1-9,20.2-20.2v-0.5
			l13.6-79.8L333,633.8z"/>
		<path d="M730.7,656.4c9.3,0,16.8,7.5,16.8,16.7s-7.5,16.8-16.7,16.8s-16.8-7.5-16.8-16.7c0,0,0,0,0-0.1
			C714,663.9,721.5,656.4,730.7,656.4 M730.7,650.4c-12.6,0-22.8,10.2-22.8,22.8c0,12.6,10.2,22.8,22.8,22.8
			c12.6,0,22.8-10.2,22.8-22.8S743.3,650.4,730.7,650.4C730.7,650.4,730.7,650.4,730.7,650.4z"/>
		<path d="M1116.8,634.2c0.2,2.2,0.3,4.3,0.3,6.5c0,38.5-31.3,69.8-69.8,69.8h-0.3L330,710.2v5.5c0,10.8,8.8,19.6,19.6,19.6
			l767.6,0.3V634.2L1116.8,634.2z"/>
		<polygon points="747.5,215.4 351.6,611 350.6,396 437.4,309.2 533.8,212.9 		"/>
		<path d="M766.6,737.5c0,0,15.6,107.7-69.2,120.5L834,858l-31.1-121.5L766.6,737.5z"/>
		<path d="M1119.5,633.8h-6l0.2-404.5c0-5.8-4.7-10.5-10.6-10.5l-738.5-0.3c-5.8,0-10.6,4.7-10.6,10.6l-0.2,404.5h-6l0.2-404.5
			c0-9.1,7.4-16.6,16.6-16.6l738.5,0.3c9.1,0,16.6,7.4,16.6,16.6L1119.5,633.8z"/>
		<line class="st0" x1="834.8" y1="862.3" x2="802.6" y2="738"/>
		<rect x="815.6" y="736" transform="matrix(0.968 -0.2509 0.2509 0.968 -174.5826 230.981)" width="6" height="128.5"/>
		<path class="st3" d="M610.2,857.9h246.3c7.1,0,12.9,5.8,12.9,12.9v11.4c0,7.1-5.8,12.9-12.9,12.9H610.2c-7.1,0-12.9-5.8-12.9-12.9
			v-11.4C597.3,863.7,603.1,857.9,610.2,857.9z"/>
		<path d="M856.5,898.2L610.2,898c-8.8,0-15.9-7.1-15.9-15.9v-11.4c0-8.8,7.1-15.9,15.9-15.9l246.3,0.1c8.8,0,15.9,7.1,15.9,15.9
			v11.4C872.4,891,865.3,898.2,856.5,898.2z M610.2,860.9c-5.5,0-9.9,4.4-9.9,9.9v11.4c0,5.5,4.4,9.9,9.9,9.9c0,0,0,0,0,0l246.3,0.1
			c5.5,0,9.9-4.4,9.9-9.9v-11.4c0-5.5-4.4-9.9-9.9-9.9L610.2,860.9z"/>
		<path class="st3" d="M513.2,334.9h306.9c3.9,0,7.1,3.2,7.1,7.1v207.7c0,3.9-3.2,7.1-7.1,7.1H513.2c-3.9,0-7.1-3.2-7.1-7.1V342
			C506.1,338.1,509.3,334.9,513.2,334.9z"/>
		<path d="M820,559.8l-306.9-0.1c-5.6,0-10.1-4.5-10.1-10.1l0.1-207.7c0-5.6,4.5-10.1,10.1-10.1c0,0,0,0,0,0l306.9,0.1
			c5.6,0,10.1,4.5,10.1,10.1l-0.1,207.7C830.1,555.3,825.6,559.8,820,559.8C820.1,559.8,820.1,559.8,820,559.8z M513.2,337.8
			c-2.2,0-4.1,1.8-4.1,4.1l0,0L509,549.6c0,2.2,1.8,4.1,4.1,4.1l307,0.1c2.2,0,4.1-1.8,4.1-4.1l0.1-207.7c0-2.2-1.8-4.1-4.1-4.1
			L513.2,337.8z"/>
		<line class="st0" x1="506.1" y1="361.7" x2="827.2" y2="361.9"/>
		<rect x="506.1" y="358.8" width="321.1" height="6"/>
		<path d="M520.6,343.8L520.6,343.8c2.5,0,4.5,2,4.5,4.5l0,0c0,2.5-2,4.5-4.5,4.5l0,0c-2.5,0-4.5-2-4.5-4.5l0,0
			C516.1,345.9,518.1,343.8,520.6,343.8z"/>
		<path d="M535.1,343.9L535.1,343.9c2.5,0,4.5,2,4.5,4.5l0,0c0,2.5-2,4.5-4.5,4.5l0,0c-2.5,0-4.5-2-4.5-4.5l0,0
			C530.6,345.9,532.6,343.9,535.1,343.9z"/>
		<path d="M549.6,343.9L549.6,343.9c2.5,0,4.5,2,4.5,4.5l0,0c0,2.5-2,4.5-4.5,4.5l0,0c-2.5,0-4.5-2-4.5-4.5l0,0
			C545.1,345.9,547.1,343.9,549.6,343.9z"/>
		<path class="st3" d="M703.8,405h223.3c3.9,0,7.1,3.2,7.1,7.1v167.8c0,3.9-3.2,7.1-7.1,7.1H703.8c-3.9,0-7.1-3.2-7.1-7.1V412.1
			C696.7,408.2,699.9,405,703.8,405z"/>
		<path d="M927,590l-223.3-0.1c-5.6,0-10.1-4.5-10.1-10.1l0.1-167.8c0-5.6,4.5-10.1,10.1-10.1l223.3,0.1c5.6,0,10.1,4.5,10.1,10.1
			l-0.1,167.8C937.1,585.5,932.6,590,927,590z M703.8,408c-2.2,0-4.1,1.8-4.1,4.1l-0.1,167.8c0,2.2,1.8,4.1,4.1,4.1L927,584
			c2.2,0,4.1-1.8,4.1-4.1l0,0l0.1-167.8c0-2.2-1.8-4.1-4.1-4.1L703.8,408z"/>
		<line class="st0" x1="696.7" y1="433.8" x2="933.7" y2="433.9"/>
		<rect x="696.7" y="430.9" width="237" height="6"/>
		<path d="M711.2,414.9L711.2,414.9c2.5,0,4.5,2,4.5,4.5l0,0c0,2.5-2,4.5-4.5,4.5l0,0c-2.5,0-4.5-2-4.5-4.5l0,0
			C706.7,416.9,708.7,414.9,711.2,414.9z"/>
		<path d="M725.7,414.9L725.7,414.9c2.5,0,4.5,2,4.5,4.5l0,0c0,2.5-2,4.5-4.5,4.5l0,0c-2.5,0-4.5-2-4.5-4.5l0,0
			C721.2,417,723.2,414.9,725.7,414.9z"/>
		<path d="M740.2,414.9L740.2,414.9c2.5,0,4.5,2,4.5,4.5l0,0c0,2.5-2,4.5-4.5,4.5l0,0c-2.5,0-4.5-2-4.5-4.5l0,0
			C735.7,417,737.7,414.9,740.2,414.9z"/>
		<rect x="169.1" y="892" width="1512.9" height="6"/>
		<path class="st3" d="M1188.3,382.3c-103,6.8-100.8-31.3-101.7-41.3c-0.9-10.5,2-75.8,2-75.8s-30.5,0-28.8-10.7
			c1.7-10.7,39.1-96.5,39.1-96.5l81.3-7"/>
		<path d="M1165.2,386.1c-33.2,0-56.6-5.7-69.4-17c-11-9.7-11.7-21-12-26.5c0-0.5-0.1-1-0.1-1.4c-0.8-9.4,1.3-59.9,1.8-73.1
			c-6.7-0.3-21.6-1.6-26.8-7.6c-1.6-1.8-2.3-4.2-1.9-6.6c1.7-10.8,35.6-88.5,39.4-97.3l0.7-1.6l83.1-7.2l0.5,6l-79.5,6.9
			c-10.9,24.9-37,85.9-38.3,94.2c-0.1,0.6,0.1,1.3,0.6,1.7c3.4,4,17.4,5.5,25.3,5.5h3.1l-0.1,3.1c0,0.6-2.8,65.2-2,75.4
			c0,0.4,0.1,0.9,0.1,1.5c0.3,5.4,0.9,14.3,10,22.3c14.5,12.7,44.2,17.7,88.4,14.8l0.4,6C1180.3,385.8,1172.5,386.1,1165.2,386.1z"
			/>
		<rect x="1169.1" y="384.7" width="6" height="97.6"/>
		<rect x="1299.8" y="363.9" width="6" height="117.6"/>
		<path class="st3" d="M480.6,824.4H590c21.7,0,39.2,17.6,39.2,39.2v31.2l0,0H441.4l0,0v-31.2C441.4,842,458.9,824.4,480.6,824.4
			C480.6,824.4,480.6,824.4,480.6,824.4z"/>
		<path d="M632.2,897.9l-193.9-0.1v-34.2c0-23.3,18.9-42.2,42.2-42.2l109.4,0c23.3,0,42.2,18.9,42.2,42.2L632.2,897.9z M444.4,891.8
			l181.9,0.1v-28.2c0-20-16.2-36.2-36.2-36.3l-109.4,0c-20,0-36.2,16.2-36.2,36.2L444.4,891.8z"/>
		<polyline class="st3" points="1087.4,895.2 1087.2,808.3 1121.4,753.1 1130.2,762.7 		"/>
		<polygon points="1084.4,895.3 1084.2,807.5 1120.9,748.2 1132.4,760.7 1128,764.7 1121.8,758.1 1090.2,809.2 1090.4,895.2 		"/>
		<path class="st3" d="M1174.3,688.8l-128.7,177c-12.3,18.3-32.9,29.3-55,29.2l-346.4-0.2c-8.5,0-16.7-2.9-23.4-8.1l-73-57.4
			l-40.3,21.9c0,0-16.3,8.3-23,0l44.5-37.7c7.3-6.2,16.8-9.2,26.3-8.3l62.4,5.9c8.1,0.8,15.7,4.3,21.5,10l30.9,30.2l241.7-50.3
			c20.5-4.3,37.7-18,46.6-36.9l79.2-151"/>
		<path d="M990.7,898.1l-346.3-0.2c-9.2,0-18.1-3.1-25.3-8.8L547.7,833l-38.6,21c-0.8,0.4-18.6,9.3-26.7-0.8l-1.8-2.3l46.7-39.5
			c7.9-6.7,18.2-9.9,28.6-9l62.4,5.9c8.8,0.8,17,4.6,23.3,10.8l29.8,29l240.1-49.9c19.5-4.1,36-17.2,44.5-35.2l0.1-0.1l79.3-151
			l5.3,2.8l-79.2,151c-9.3,19.8-27.3,34-48.7,38.5l-243.2,50.6l-32-31.3c-5.3-5.2-12.3-8.4-19.7-9.1l-62.4-5.9
			c-8.7-0.8-17.4,1.9-24.1,7.6l-41.7,35.3c6.1,2.7,16.8-2.5,16.9-2.6l42-22.8l74.5,58.6c6.2,4.8,13.7,7.5,21.6,7.5l346.4,0.2
			c21.1,0,40.7-10.4,52.5-27.9l0.1-0.1l128.7-177l4.9,3.5l-128.6,177C1035.3,886.7,1013.7,898.1,990.7,898.1z"/>
		<path class="st3" d="M1171.9,701.4l-41.8,61.3l-150.4-83.3c0,0,121.8-232.8,199.4-231.8c27.5,0.4,83.4-1.4,123.6-0.8
			c0,0,38.2-1.8,76.7,48.3s80.2,402.1,80.2,402.1"/>
		<path d="M1456.8,897.5c-0.4-3.5-42-351.8-79.6-400.6c-37.2-48.2-73.9-47.1-74.2-47.1h-0.2c-22.5-0.4-50.2,0-74.6,0.4
			c-19,0.3-36.9,0.5-49,0.4h-0.4c-70.6,0-181.3,202.2-194.9,227.6l145.5,80.6l40.2-59.1l5,3.4l-43.3,63.6l-155.4-86.1l1.4-2.6
			c0.3-0.6,31-59,70.8-116.6c53.6-77.5,97.6-116.8,130.8-116.8h0.5c12,0.2,29.9-0.1,48.8-0.4c24.4-0.4,52.1-0.7,74.7-0.4
			c2.7-0.1,40.7-0.5,79.2,49.4c16.3,21.1,34.8,95.6,55.1,221.2c15.1,93.3,25.6,181.5,25.7,182.4L1456.8,897.5z"/>
		<path d="M1411.9,175.5c-6.5-75.8-48.9-139.8-125.2-156c-29-6.2-50.2-0.3-78.3,6.6c-2.2,0.5-4.3,1.1-6.4,1.7l0,0
			c-6.8,1.9-13.6,3.9-20.5,5.8c-12,2.6-25.2,5.1-27.9,5.3c-10.7,1-21.8,2.3-32.3,0.3c-22.9-4.4-45.8-9.2-61.5,12.6
			c-14.9,20.7-7,69.3,3.7,91.4l1.5,3.1c2.1,5.3,5,10.2,8.5,14.7c23.1,29.6,61.1,19.3,93.1,24.7c15.7,2.6,28.6,11.1,34.6,26.3
			c4.6,11.6-1.2,38.1,19,38c23.9-0.1,10.3-52.7,45-39.9c25.8,9.6,22,49.6,7.8,66.6c-5.7,6.9-14.9,10-17,18.8
			c-3.2,13.7,9.8,30.3,17.3,40.6s14.7,21.2,25.3,28.6c15.4,10.9,21.3,3,32.3-11C1371.8,301.4,1418.1,246.6,1411.9,175.5z"/>
		<path d="M744.6,895l246.1,0.1c22.1,0,42.7-10.9,55-29.2l77.3-104.1l-41.5-26l-50.3,86.7c-13.4,23.9-37.3,40-64.5,43.5L744.6,895z"
			/>
		<path d="M529.8,839.3c0,0,34.6,12.7,31.6,55.6l73.4-0.5l-86.9-65L529.8,839.3z"/>
		<polyline points="1174.3,419.8 1215.2,376 1174.3,380.2 		"/>
		<polygon points="1188.2,668.2 1151.6,779.3 1125.8,763.8 		"/>
		<path d="M1379.5,495.1c-38.5-50-79.6-45.2-79.6-45.2s77,2.3,98.9,445.4l60.9,1.9C1443.6,775.9,1408.3,532.4,1379.5,495.1z"/>
	</g>
</g>
</svg>
