<svg xmlns="http://www.w3.org/2000/svg" xmlns:xlink="http://www.w3.org/1999/xlink" viewBox="0 0 1380 1200"><defs><style>.cls-1,.cls-11,.cls-3{fill:none;}.cls-12,.cls-15,.cls-2{fill:#ff0;}.cls-11,.cls-12,.cls-16,.cls-3,.cls-5,.cls-7{stroke:#000;}.cls-10,.cls-11,.cls-12,.cls-15,.cls-3,.cls-5,.cls-7{stroke-miterlimit:10;}.cls-3{stroke-width:8px;}.cls-4{isolation:isolate;}.cls-6{fill:url(#Muster_gelb);}.cls-13,.cls-16,.cls-17,.cls-7{fill:#fff;}.cls-10,.cls-11,.cls-12,.cls-15,.cls-16,.cls-7{stroke-width:6px;}.cls-8{fill:url(#Streifen_RZ);}.cls-12,.cls-9{mix-blend-mode:multiply;}.cls-10,.cls-15{stroke:#fff;}.cls-13{font-size:80.33px;font-family:Montserrat-Regular, Montserrat;}.cls-14{letter-spacing:0.01em;}.cls-16{stroke-linecap:round;stroke-linejoin:round;}.cls-18{fill:url(#Streifen_RZ-3);}</style><pattern id="Muster_gelb" data-name="Muster gelb" width="56" height="55" patternTransform="translate(-32.73 71.87) rotate(-45.78)" patternUnits="userSpaceOnUse" viewBox="0 0 56 55"><rect class="cls-1" width="56" height="55"/><circle class="cls-2" cx="14.18" cy="14.01" r="2.83"/><circle class="cls-2" cx="41.82" cy="14.01" r="2.83"/><circle class="cls-2" cx="14.18" cy="40.99" r="2.83"/><circle class="cls-2" cx="41.82" cy="40.99" r="2.83"/></pattern><pattern id="Streifen_RZ" data-name="Streifen_RZ" width="94.05" height="94.05" patternTransform="translate(342.14 18.03) scale(0.73 0.73)" patternUnits="userSpaceOnUse" viewBox="0 0 94.05 94.05"><rect class="cls-1" width="94.05" height="94.05"/><line class="cls-3" x1="92.88" y1="189.26" x2="189.26" y2="92.88"/><line class="cls-3" x1="67.88" y1="167.26" x2="164.26" y2="70.88"/><line class="cls-3" x1="-1.17" y1="189.26" x2="95.21" y2="92.88"/><line class="cls-3" x1="-26.17" y1="167.26" x2="70.21" y2="70.88"/><line class="cls-3" x1="-95.21" y1="189.26" x2="1.17" y2="92.88"/><line class="cls-3" x1="92.88" y1="95.21" x2="189.26" y2="-1.17"/><line class="cls-3" x1="67.88" y1="73.21" x2="164.26" y2="-23.17"/><line class="cls-3" x1="-1.17" y1="95.21" x2="95.21" y2="-1.17"/><line class="cls-3" x1="-26.17" y1="73.21" x2="70.21" y2="-23.17"/><line class="cls-3" x1="-95.21" y1="95.21" x2="1.17" y2="-1.17"/><line class="cls-3" x1="92.88" y1="1.17" x2="189.26" y2="-95.21"/><line class="cls-3" x1="-1.17" y1="1.17" x2="95.21" y2="-95.21"/><line class="cls-3" x1="-95.21" y1="1.17" x2="1.17" y2="-95.21"/></pattern><pattern id="Streifen_RZ-3" data-name="Streifen_RZ" width="94.05" height="94.05" patternTransform="translate(313.14 -24.97) scale(0.73 0.73)" patternUnits="userSpaceOnUse" viewBox="0 0 94.05 94.05"><rect class="cls-1" width="94.05" height="94.05"/><line class="cls-3" x1="92.88" y1="189.26" x2="189.26" y2="92.88"/><line class="cls-3" x1="67.88" y1="167.26" x2="164.26" y2="70.88"/><line class="cls-3" x1="-1.17" y1="189.26" x2="95.21" y2="92.88"/><line class="cls-3" x1="-26.17" y1="167.26" x2="70.21" y2="70.88"/><line class="cls-3" x1="-95.21" y1="189.26" x2="1.17" y2="92.88"/><line class="cls-3" x1="92.88" y1="95.21" x2="189.26" y2="-1.17"/><line class="cls-3" x1="67.88" y1="73.21" x2="164.26" y2="-23.17"/><line class="cls-3" x1="-1.17" y1="95.21" x2="95.21" y2="-1.17"/><line class="cls-3" x1="-26.17" y1="73.21" x2="70.21" y2="-23.17"/><line class="cls-3" x1="-95.21" y1="95.21" x2="1.17" y2="-1.17"/><line class="cls-3" x1="92.88" y1="1.17" x2="189.26" y2="-95.21"/><line class="cls-3" x1="-1.17" y1="1.17" x2="95.21" y2="-95.21"/><line class="cls-3" x1="-95.21" y1="1.17" x2="1.17" y2="-95.21"/></pattern></defs><title>Illustrationen_Standarts (@x4)</title><g class="cls-4"><g id="Ebene_1" data-name="Ebene 1"><rect class="cls-5" x="1.66" width="1380" height="1200"/><path class="cls-6" d="M1147.39,533.54,493.52,1019.91c-77.3,57.5-187.59,41.3-245.09-36l-54.75-73.62c-57.5-77.29-41.3-187.58,36-245.08L883.55,178.84c77.3-57.5,187.59-41.3,245.09,36l54.75,73.61C1240.89,365.75,1224.69,476,1147.39,533.54Z"/><path class="cls-7" d="M1143.41,783.75H310V356.07l32.78-25.45a51.18,51.18,0,0,1,31.39-10.75h746.07A23.14,23.14,0,0,1,1143.41,343Z"/><path class="cls-8" d="M313,780.75V357.54L344.64,333a48.4,48.4,0,0,1,29.55-10.12h746.07A20.17,20.17,0,0,1,1140.41,343V780.75Z"/><path d="M1120.26,325.87A17.16,17.16,0,0,1,1137.41,343V777.75H316V359l30.46-23.65a45.39,45.39,0,0,1,27.71-9.49h746.07m0-6H374.19a51.18,51.18,0,0,0-31.39,10.75L310,356.07V783.75h833.39V343a23.14,23.14,0,0,0-23.15-23.15Z"/><path class="cls-7" d="M333.08,345h761.17A23.06,23.06,0,0,1,1117.31,368V785.76a0,0,0,0,1,0,0H310a0,0,0,0,1,0,0V368A23.06,23.06,0,0,1,333.08,345Z"/><polyline class="cls-7" points="814.89 1011.98 781.64 884.37 643.57 883.96 609.57 1011.38"/><path class="cls-7" d="M310,780.74V864a23.15,23.15,0,0,0,23.15,23.15h761A23.15,23.15,0,0,0,1117.31,864V780.74Z"/><path d="M710.65,806.14a16.77,16.77,0,1,1-16.77,16.77,16.79,16.79,0,0,1,16.77-16.77m0-6a22.77,22.77,0,1,0,22.77,22.77,22.78,22.78,0,0,0-22.77-22.77Z"/><rect x="631.83" y="480.52" width="157.64" height="157.64" rx="21.07"/><rect x="830.14" y="480.52" width="157.64" height="157.64" rx="21.07"/><path class="cls-9" d="M1096.74,783.75c.2,2.15.31,4.32.31,6.52a69.8,69.8,0,0,1-69.8,69.79H310v.78a24.33,24.33,0,0,0,24.33,24.33h762.87V783.75Z"/><polygon points="727.34 365.08 331.6 760.83 330.46 545.83 417.23 459.06 513.64 362.65 727.34 365.08"/><rect class="cls-10" x="433.52" y="480.52" width="157.64" height="157.64" rx="21.07"/><path class="cls-9" d="M746.63,887.16s15.62,107.66-69.11,120.5H814.07L792.19,886.17Z"/><path class="cls-11" d="M330.82,783.39V378.91a13.57,13.57,0,0,1,13.56-13.57h738.51a13.57,13.57,0,0,1,13.56,13.57V783.39"/><path class="cls-12" d="M330.82,783.39V378.91a13.57,13.57,0,0,1,13.56-13.57h738.51a13.57,13.57,0,0,1,13.56,13.57V783.39"/><text class="cls-13" transform="translate(681.1 586.56)"><tspan class="cls-14">2</tspan><tspan x="46.43" y="0">.</tspan></text><text class="cls-13" transform="translate(880.09 586.56)">3.</text><text class="cls-13" transform="translate(489.65 586.56)">1.</text><line class="cls-15" x1="814.89" y1="1011.98" x2="782.6" y2="887.65"/><rect class="cls-7" x="577.36" y="1007.66" width="272.11" height="37.15" rx="12.88"/><line class="cls-15" x1="333.17" y1="887.17" x2="1094.16" y2="887.17"/><path class="cls-16" d="M255.42,789.43l16.68-1.29a85.89,85.89,0,0,0,52.72-23.51h0a103.35,103.35,0,0,0,26-40.16l12.23-50.93A10.84,10.84,0,0,1,379.55,667c6.66,4.33,14,11,17.55,20.72,5.2,14.29.17,50-3.11,69.11a10.8,10.8,0,0,0,10.64,12.63h62.95a20.34,20.34,0,0,1,20.34,20.34V800a20.34,20.34,0,0,1-20.34,20.34h2.91a17.43,17.43,0,0,1,17.43,17.44v8.73a17.43,17.43,0,0,1-17.43,17.43h2.24a15.19,15.19,0,0,1,15.19,15.19V892.3a15.19,15.19,0,0,1-15.19,15.19H452.21a15.74,15.74,0,0,1,15.73,15.74v4.86a15.73,15.73,0,0,1-15.73,15.73H342.28a64.88,64.88,0,0,1-36-10.9h0a64.93,64.93,0,0,0-36-10.9H255.42"/><rect x="154.89" y="777.9" width="97.53" height="155.66" rx="5.26"/><path class="cls-17" d="M247.17,780.89a2.26,2.26,0,0,1,2.25,2.26V928.3a2.25,2.25,0,0,1-2.25,2.25h-87a2.25,2.25,0,0,1-2.25-2.25V783.15a2.26,2.26,0,0,1,2.25-2.26h87m0-6h-87a8.25,8.25,0,0,0-8.25,8.26V928.3a8.25,8.25,0,0,0,8.25,8.25h87a8.25,8.25,0,0,0,8.25-8.25V783.15a8.25,8.25,0,0,0-8.25-8.26Z"/><circle class="cls-17" cx="186.4" cy="905.68" r="14.53"/><polygon class="cls-7" points="1157.86 1055.59 1104.59 1032.18 1051.31 1055.59 1051.31 806.2 1157.86 787.47 1157.86 1055.59"/><line class="cls-7" x1="1104" y1="843.67" x2="1104" y2="1032.18"/><polygon class="cls-18" points="1157.86 1055.59 1104.59 1032.18 1104.18 806.92 1157.86 797.48 1157.86 1055.59"/><path class="cls-16" d="M1228.11,719.56a36.23,36.23,0,0,0-24.35-34.22,8.94,8.94,0,0,1-5.18-12.4,36.2,36.2,0,0,0-48.35-48.27,8.58,8.58,0,0,1-11.83-4.87,36.21,36.21,0,0,0-68.33.3,8.93,8.93,0,0,1-12.39,5.17,36.21,36.21,0,0,0-48.28,48.36,8.56,8.56,0,0,1-4.86,11.82,36.21,36.21,0,0,0,.29,68.33,8.93,8.93,0,0,1,5.17,12.4,36.21,36.21,0,0,0,48.36,48.27,8.57,8.57,0,0,1,11.82,4.87,36.21,36.21,0,0,0,68.33-.3,8.94,8.94,0,0,1,12.4-5.17,36.22,36.22,0,0,0,48.28-48.36,8.56,8.56,0,0,1,4.86-11.82A36.21,36.21,0,0,0,1228.11,719.56Z"/><circle class="cls-7" cx="1104.29" cy="719.56" r="78"/><path d="M1104.94,643.42a76.2,76.2,0,0,0-23.43,3.69,76.15,76.15,0,0,1,0,144.9,76.14,76.14,0,1,0,23.43-148.59Z"/><polygon class="cls-16" points="1101.39 760.86 1056.56 689.88 1076.36 677.38 1103.54 720.41 1207.3 589.35 1225.66 603.89 1101.39 760.86"/></g></g></svg>