<?xml version="1.0" encoding="utf-8"?>
<!-- Generator: Adobe Illustrator 23.0.6, SVG Export Plug-In . SVG Version: 6.00 Build 0)  -->
<svg version="1.1" id="Ebene_1" xmlns="http://www.w3.org/2000/svg" xmlns:xlink="http://www.w3.org/1999/xlink" x="0px" y="0px"
	 viewBox="0 0 178 32.5" style="enable-background:new 0 0 178 32.5;" xml:space="preserve">
<style type="text/css">
	.st0{clip-path:url(#SVGID_2_);}
</style>
<g>
	<defs>
		<rect id="SVGID_1_" x="0.5" y="0.4" width="177" height="31.8"/>
	</defs>
	<clipPath id="SVGID_2_">
		<use xlink:href="#SVGID_1_"  style="overflow:visible;"/>
	</clipPath>
	<path class="st0" d="M19,0.6v25.1h-3.1v-2.8c-1.3,1.9-3.6,3-6.4,3c-5.3,0-9-3.9-9-9.2c0-5.3,3.4-9.1,9-9.1c2.5,0,5,1,6.3,2.8V0.6
		H19z M9.9,23c3.3,0,6-2.5,6-6.3c0-3.7-2.4-6.3-6-6.3s-6.1,2.4-6.1,6.3C3.8,20.4,6.3,23,9.9,23 M22.1,7.8h1.5h1.7v17.9h-3.2V7.8z
		 M31.5,10.7c1.3-2.3,3.6-3.1,6.5-3.1v3.1c-4,0-6.4,1.6-6.4,6v8.9h-3.2V7.8h3V10.7z M55.8,17.9H41.2c0.4,3.1,3.2,5.1,6.5,5.1
		c2.1,0,3.8-0.7,5.2-2.2l1.8,2.1c-1.6,1.9-4.1,2.9-7,2.9c-5.4,0-9.6-3.4-9.6-9.2c0-5.5,3.6-9.1,8.9-9.1c5.3,0,8.8,3.6,8.8,9
		C55.9,16.9,55.9,17.4,55.8,17.9 M47,10.4c-3,0-5.4,1.9-5.8,4.8h11.5C52.5,12.4,50.2,10.4,47,10.4 M67,25.9c-5.3,0-9.5-4-9.5-9.2
		c0-5.2,3.8-9.1,9.5-9.1c3.1,0,5.9,1.2,7.3,3.8L71.8,13c-1.1-1.7-2.7-2.5-4.8-2.5c-3.6,0-6.2,2.4-6.2,6.3c0,3.7,2.5,6.3,6.2,6.3
		c2.2,0,3.7-0.9,4.8-2.6l2.5,1.6C72.9,24.4,70.2,25.9,67,25.9 M88.1,24.5c-0.9,0.8-2.6,1.3-3.9,1.3c-3.6,0-5.6-2.1-5.6-5.6v-9.8
		h-3.1V7.8h3.1V0.6h3.2v7.2h5.1v2.7h-5.1v9.7c0,1.8,0.8,3,2.8,3c1,0,1.8-0.3,2.5-0.9L88.1,24.5z M118.6,7.6c5.3,0,9,3.4,9,9.1
		c0,5.4-3.7,9.2-9,9.2c-2.4,0-4.8-1.1-6.2-2.9v9.2h-3.3V7.8h3.2v2.8C113.7,8.5,116,7.6,118.6,7.6 M118.3,23c3.3,0,6.1-2.5,6.1-6.3
		c0-3.6-2.5-6.3-6.1-6.3c-3.4,0-6,2.4-6,6.3C112.3,20.4,114.9,23,118.3,23 M132.7,10.7c1.1-2.3,3.5-3.1,6.5-3.1v3.1h-0.8
		c-3.5,0-5.6,2.1-5.6,6v8.9h-3.2V7.8h3.1V10.7z M141.1,7.8h3.2v17.9h-3.2V7.8z M157,7.6c4.6,0,7.3,2.7,7.3,7.7v10.4h-3.2v-9.9
		c0-3.3-1.3-5.3-4.9-5.3c-3.5,0-5.7,2.1-5.7,6v9.2h-3.2V7.8h3.1v2.7C151.9,8.5,154.1,7.6,157,7.6 M177.5,24.5
		c-0.7,0.7-2.4,1.3-3.9,1.3c-3.4,0-5.7-1.9-5.7-5.6v-9.8h-3.1V7.8h3.1V0.6h3.2v7.2h5.1v2.7h-5.1v9.7c0,1.9,0.9,3,2.8,3
		c1,0,1.8-0.3,2.5-0.9L177.5,24.5z M93.1,8.4c0,3,2.1,5.1,5.2,5.1c3,0,5.1-2,5.1-5.1c0-3.1-2-5.2-5.1-5.2
		C95.2,3.2,93.1,5.3,93.1,8.4 M89.8,8.4c0-4.8,3.3-8,8.4-8c5.1,0,8.3,3.2,8.3,8c0,3.1-1.9,5.1-4.3,7.5L95,22.6h11.9v3H89.6v-2.4
		l8-7.1C92.9,15.7,89.8,12.6,89.8,8.4 M145.3,3c0,1.5-1.2,2.6-2.6,2.6c-1.5,0-2.7-1.1-2.7-2.6c0-1.4,1.2-2.6,2.7-2.6
		C144.1,0.4,145.3,1.6,145.3,3 M26.3,3c0,1.5-1.2,2.6-2.7,2.6c-1.4,0-2.6-1.1-2.6-2.6c0-1.4,1.2-2.6,2.6-2.6
		C25.2,0.4,26.3,1.6,26.3,3"/>
</g>
</svg>
