<svg id="Ebene_1" data-name="Ebene 1" xmlns="http://www.w3.org/2000/svg" xmlns:xlink="http://www.w3.org/1999/xlink" viewBox="0 0 130 130"><defs><style>.cls-1,.cls-3{fill:none;}.cls-2{clip-path:url(#clip-path);}.cls-3{stroke:#000;stroke-linejoin:round;stroke-width:2px;}.cls-4{fill:#fff;}</style><clipPath id="clip-path"><rect class="cls-1" x="39.2" y="0.22" width="51.61" height="129.56"/></clipPath></defs><title>DAN_4396_d2p_Relaunch_Icons</title><rect x="47.28" y="43.74" width="35.43" height="85.04"/><g class="cls-2"><rect class="cls-3" x="47.28" y="43.74" width="35.43" height="85.04"/><path class="cls-4" d="M81.8,114.61H48.2a8,8,0,0,1-8-8V40.2a24.8,24.8,0,1,1,49.6,0v66.41a8,8,0,0,1-8,8"/><path class="cls-3" d="M81.8,114.61H48.2a8,8,0,0,1-8-8V40.2a24.8,24.8,0,1,1,49.6,0v66.41A8,8,0,0,1,81.8,114.61Z"/><path class="cls-4" d="M82.72,40.2A17.72,17.72,0,1,1,65,22.48,17.72,17.72,0,0,1,82.72,40.2"/><path class="cls-3" d="M82.72,40.2A17.72,17.72,0,1,1,65,22.48,17.72,17.72,0,0,1,82.72,40.2Z"/><path d="M65,57.91c8.57,0,15.72-5.4,17.36-12.59A16.32,16.32,0,0,0,72.09,34V7.52H57.91V34A16.32,16.32,0,0,0,47.64,45.32C49.28,52.51,56.43,57.91,65,57.91"/><path class="cls-3" d="M65,57.91c8.57,0,15.72-5.4,17.36-12.59A16.32,16.32,0,0,0,72.09,34V7.52H57.91V34A16.32,16.32,0,0,0,47.64,45.32C49.28,52.51,56.43,57.91,65,57.91Z"/><path class="cls-3" d="M72.09,27.73V1.22H57.91V27.73m-10.63,72.7H82.72M47.28,93.35H82.72M47.28,86.26H82.72"/></g></svg>