<svg id="Ebene_1" data-name="Ebene 1" xmlns="http://www.w3.org/2000/svg" xmlns:xlink="http://www.w3.org/1999/xlink" viewBox="0 0 130 130"><defs><style>.cls-1,.cls-4{fill:none;}.cls-2{fill:#fff;}.cls-3{clip-path:url(#clip-path);}.cls-4{stroke:#000;stroke-linejoin:round;stroke-width:2px;}</style><clipPath id="clip-path"><rect class="cls-1" x="25.11" y="14.41" width="79.78" height="101.17"/></clipPath></defs><title>DAN_4396_d2p_Relaunch_Icons</title><rect class="cls-2" x="29.62" y="26.23" width="84.97" height="63.43" transform="translate(14.05 129.96) rotate(-89.91)"/><g class="cls-3"><rect class="cls-4" x="29.62" y="26.23" width="84.97" height="63.43" transform="translate(14.05 129.96) rotate(-89.91)"/></g><rect class="cls-2" x="22.62" y="33.18" width="84.97" height="63.43" transform="translate(0.1 129.9) rotate(-89.91)"/><rect class="cls-4" x="22.62" y="33.18" width="84.97" height="63.43" transform="translate(0.1 129.9) rotate(-89.91)"/><rect class="cls-2" x="15.41" y="40.34" width="84.97" height="63.43" transform="translate(-14.25 129.84) rotate(-89.91)"/><g class="cls-3"><rect class="cls-4" x="15.41" y="40.34" width="84.97" height="63.43" transform="translate(-14.25 129.84) rotate(-89.91)"/></g><rect x="36.65" y="61.59" width="42.46" height="49.47" transform="translate(-28.54 144.08) rotate(-89.92)"/><line class="cls-4" x1="33.37" y1="57.86" x2="82.84" y2="57.93"/><line class="cls-4" x1="33.38" y1="51.28" x2="82.85" y2="51.35"/><line class="cls-4" x1="33.39" y1="44.1" x2="82.86" y2="44.17"/></svg>