<svg id="Ebene_1" data-name="Ebene 1" xmlns="http://www.w3.org/2000/svg" xmlns:xlink="http://www.w3.org/1999/xlink" viewBox="0 0 130 130"><defs><style>.cls-1,.cls-4{fill:none;}.cls-2{fill:#fff;}.cls-3{clip-path:url(#clip-path);}.cls-4{stroke:#000;stroke-linejoin:round;stroke-width:2px;}</style><clipPath id="clip-path"><rect class="cls-1" x="28.57" y="21.48" width="72.87" height="87.04"/></clipPath></defs><title>DAN_4396_d2p_Relaunch_Icons</title><polygon class="cls-2" points="65 107.52 65 107.52 29.57 29.57 36.65 22.48 65 107.52"/><g class="cls-3"><polygon class="cls-4" points="65 107.52 65 107.52 29.57 29.57 36.65 22.48 65 107.52"/></g><polygon class="cls-2" points="65 107.52 65 107.52 36.65 22.48 43.74 29.57 65 107.52"/><g class="cls-3"><polygon class="cls-4" points="65 107.52 65 107.52 36.65 22.48 43.74 29.57 65 107.52"/></g><polygon class="cls-2" points="65 107.52 65 107.52 43.74 29.57 50.83 22.48 65 107.52"/><g class="cls-3"><polygon class="cls-4" points="65 107.52 65 107.52 43.74 29.57 50.83 22.48 65 107.52"/></g><polygon class="cls-2" points="65 107.52 65 107.52 50.83 22.48 57.91 29.57 65 107.52"/><g class="cls-3"><polygon class="cls-4" points="65 107.52 65 107.52 50.83 22.48 57.91 29.57 65 107.52"/></g><polygon class="cls-2" points="65 107.52 65 107.52 57.91 29.57 65 22.48 65 107.52"/><g class="cls-3"><polygon class="cls-4" points="65 107.52 65 107.52 57.91 29.57 65 22.48 65 107.52"/></g><polygon class="cls-2" points="65 107.52 65 107.52 65 22.48 72.09 29.57 65 107.52"/><g class="cls-3"><polygon class="cls-4" points="65 107.52 65 107.52 65 22.48 72.09 29.57 65 107.52"/></g><polygon class="cls-2" points="65 107.52 65 107.52 72.09 29.57 79.17 22.48 65 107.52"/><g class="cls-3"><polygon class="cls-4" points="65 107.52 65 107.52 72.09 29.57 79.17 22.48 65 107.52"/></g><polygon class="cls-2" points="65 107.52 65 107.52 79.17 22.48 86.26 29.57 65 107.52"/><g class="cls-3"><polygon class="cls-4" points="65 107.52 65 107.52 79.17 22.48 86.26 29.57 65 107.52"/></g><polygon class="cls-2" points="65 107.52 65 107.52 86.26 29.57 93.35 22.48 65 107.52"/><g class="cls-3"><polygon class="cls-4" points="65 107.52 65 107.52 86.26 29.57 93.35 22.48 65 107.52"/></g><polygon class="cls-2" points="65 107.52 65 107.52 93.35 22.48 100.43 29.57 65 107.52"/><g class="cls-3"><polygon class="cls-4" points="65 107.52 65 107.52 93.35 22.48 100.43 29.57 65 107.52"/></g></svg>