<svg id="Ebene_1" data-name="Ebene 1" xmlns="http://www.w3.org/2000/svg" xmlns:xlink="http://www.w3.org/1999/xlink" viewBox="0 0 130 130"><defs><style>.cls-1,.cls-4,.cls-5{fill:none;}.cls-2{fill:#fff;}.cls-3{clip-path:url(#clip-path);}.cls-4,.cls-5{stroke:#000;stroke-linejoin:round;stroke-width:2px;}.cls-5{stroke-linecap:round;}</style><clipPath id="clip-path"><rect class="cls-1" x="14.39" y="17.94" width="101.21" height="94.13"/></clipPath></defs><title>DAN_4396_d2p_Relaunch_Icons</title><polygon class="cls-2" points="79.05 54.05 22.49 67.97 22.63 32.85 79.19 18.94 79.05 54.05"/><g class="cls-3"><polygon class="cls-4" points="79.05 54.05 22.49 67.97 22.63 32.85 79.19 18.94 79.05 54.05"/></g><polygon class="cls-2" points="86.14 61.14 22.49 67.97 22.63 32.85 86.27 26.02 86.14 61.14"/><polygon class="cls-4" points="86.14 61.14 22.49 67.97 22.63 32.85 86.27 26.02 86.14 61.14"/><polygon class="cls-2" points="93.29 82.7 22.48 82.59 22.63 32.46 93.44 32.56 93.29 82.7"/><polygon class="cls-4" points="93.29 82.7 22.48 82.59 22.63 32.46 93.44 32.56 93.29 82.7"/><polygon class="cls-2" points="100.21 82.42 43.65 96.33 43.79 61.22 100.35 47.3 100.21 82.42"/><polygon class="cls-4" points="100.21 82.42 43.65 96.33 43.79 61.22 100.35 47.3 100.21 82.42"/><polygon class="cls-2" points="107.3 89.5 43.65 96.33 43.79 61.22 107.43 54.38 107.3 89.5"/><polygon class="cls-4" points="107.3 89.5 43.65 96.33 43.79 61.22 107.43 54.38 107.3 89.5"/><polygon class="cls-2" points="114.45 111.06 43.64 110.95 43.8 60.82 114.61 60.92 114.45 111.06"/><g class="cls-3"><polygon class="cls-4" points="114.45 111.06 43.64 110.95 43.8 60.82 114.61 60.92 114.45 111.06"/><path class="cls-5" d="M29.57,43.74c0,2-3.18,3.54-7.09,3.54s-7.09-1.58-7.09-3.54,3.18-3.54,7.09-3.54m7.09,10.63c0,2-3.18,3.54-7.09,3.54s-7.09-1.59-7.09-3.54,3.18-3.55,7.09-3.55m7.09,10.63c0,2-3.18,3.55-7.09,3.55s-7.09-1.59-7.09-3.55,3.18-3.54,7.09-3.54M29.57,65c0,2-3.18,3.54-7.09,3.54S15.39,67,15.39,65s3.18-3.54,7.09-3.54m7.09,10.63c0,2-3.18,3.54-7.09,3.54S15.39,74,15.39,72.09s3.18-3.55,7.09-3.55m28.35,3.55c0,2-3.18,3.54-7.09,3.54S36.65,74,36.65,72.09s3.18-3.55,7.09-3.55m7.09,10.63c0,2-3.18,3.55-7.09,3.55s-7.09-1.59-7.09-3.55,3.18-3.54,7.09-3.54m7.09,10.63c0,2-3.18,3.54-7.09,3.54s-7.09-1.58-7.09-3.54,3.18-3.54,7.09-3.54m7.09,10.63c0,2-3.18,3.54-7.09,3.54s-7.09-1.59-7.09-3.54,3.18-3.55,7.09-3.55m7.09,10.63c0,2-3.18,3.55-7.09,3.55s-7.09-1.59-7.09-3.55,3.18-3.54,7.09-3.54"/></g></svg>