<svg id="Ebene_1" data-name="Ebene 1" xmlns="http://www.w3.org/2000/svg" xmlns:xlink="http://www.w3.org/1999/xlink" viewBox="0 0 130 130"><defs><style>.cls-1,.cls-4{fill:none;}.cls-2{fill:#fff;}.cls-3{clip-path:url(#clip-path);}.cls-4{stroke:#000;stroke-linejoin:round;stroke-width:2px;}</style><clipPath id="clip-path"><rect class="cls-1" x="17.95" y="21.42" width="94.1" height="87.15"/></clipPath></defs><title>DAN_4396_d2p_Relaunch_Icons</title><rect class="cls-2" x="8.13" y="33.36" width="85.06" height="63.29" transform="translate(-14.42 115.56) rotate(-89.91)"/><g class="cls-3"><rect class="cls-4" x="8.13" y="33.36" width="85.06" height="63.29" transform="translate(-14.42 115.56) rotate(-89.91)"/></g><rect x="16.24" y="41.86" width="68.79" height="47.27" transform="translate(-14.95 116.02) rotate(-89.9)"/><path d="M26.06,30.07l-.12,70.78,49.26.08.13-70.78Zm2,2,45.28.07-.12,66.79-45.27-.07Z"/><g class="cls-3"><path class="cls-2" d="M100.5,72.39l-3.67-1V58.1H40.5V83A10.55,10.55,0,0,0,51,93.5H100.5a10.56,10.56,0,0,0,0-21.12"/><path class="cls-4" d="M51.3,72.39A6,6,0,0,0,47.44,83H61.72M51.05,72.39A10.56,10.56,0,1,1,40.5,83V58.1H96.83V71.39M51,93.5H100.5a10.56,10.56,0,0,0,0-21.11H51.05"/></g></svg>