<svg id="Ebene_1" data-name="Ebene 1" xmlns="http://www.w3.org/2000/svg" xmlns:xlink="http://www.w3.org/1999/xlink" viewBox="0 0 130 130"><defs><style>.cls-1,.cls-4{fill:none;}.cls-2{clip-path:url(#clip-path);}.cls-3{fill:#fff;}.cls-4{stroke:#000;stroke-linejoin:round;stroke-width:2px;}</style><clipPath id="clip-path"><rect class="cls-1" x="39.2" y="7.31" width="51.61" height="115.39"/></clipPath></defs><title>DAN_4396_d2p_Relaunch_Icons</title><g class="cls-2"><path class="cls-3" d="M55.28,28.8A10.63,10.63,0,1,1,65,43.74H40.2v77.95H89.8V33.11a24.8,24.8,0,0,0-47.52-10,7.09,7.09,0,1,0,13,5.65"/><path class="cls-4" d="M55.28,28.8A10.63,10.63,0,1,1,65,43.74H40.2v77.95H89.8V33.11a24.8,24.8,0,0,0-47.52-10,7.09,7.09,0,1,0,13,5.65Z"/></g><path class="cls-4" d="M47.28,107.52H82.72m-35.44-7.09H82.72M47.28,93.35H82.72"/></svg>