<svg id="Ebene_1" data-name="Ebene 1" xmlns="http://www.w3.org/2000/svg" xmlns:xlink="http://www.w3.org/1999/xlink" viewBox="0 0 130 130"><defs><style>.cls-1,.cls-4{fill:none;}.cls-2{fill:#fff;}.cls-3{clip-path:url(#clip-path);}.cls-4{stroke:#000;stroke-linejoin:round;stroke-width:2px;}.cls-5{fill:#1a1a18;}</style><clipPath id="clip-path"><rect class="cls-1" x="21.51" y="14.55" width="86.98" height="100.91"/></clipPath></defs><title>DAN_4396_d2p_Relaunch_Icons</title><polygon class="cls-2" points="22.65 29.46 22.51 106.8 72.08 92.88 72.21 15.55 22.65 29.46"/><g class="cls-3"><polygon class="cls-4" points="72.08 92.88 22.51 106.8 22.65 29.46 72.21 15.55 72.08 92.88"/></g><polygon class="cls-2" points="22.65 29.46 22.51 106.8 78.99 100.08 79.12 22.75 22.65 29.46"/><g class="cls-3"><polygon class="cls-4" points="78.99 100.08 22.51 106.8 22.65 29.46 79.12 22.75 78.99 100.08"/></g><rect class="cls-2" x="11.72" y="39.97" width="85.29" height="63.58" transform="translate(-17.47 126.02) rotate(-89.91)"/><g class="cls-3"><rect class="cls-4" x="11.72" y="39.97" width="85.29" height="63.58" transform="translate(-17.47 126.02) rotate(-89.91)"/></g><rect x="34.03" y="62.7" width="40.58" height="47.52" transform="translate(-32.23 140.63) rotate(-89.9)"/><path d="M29.6,65.13l-.08,42.58,49.52.07.08-42.57Zm2,2,45.52.06-.06,38.58-45.52-.07Z"/><line class="cls-4" x1="29.79" y1="57.91" x2="64.97" y2="57.98"/><line class="cls-4" x1="29.8" y1="51.31" x2="64.98" y2="51.38"/><line class="cls-4" x1="29.81" y1="44.11" x2="64.99" y2="44.18"/><g class="cls-3"><path class="cls-2" d="M107.49,72.24A21.26,21.26,0,1,1,86.23,51a21.26,21.26,0,0,1,21.26,21.26"/><circle class="cls-4" cx="86.23" cy="72.24" r="21.26"/><path class="cls-5" d="M86.8,77.34V68.19h3.31a5.45,5.45,0,0,1,2.58.58,4.31,4.31,0,0,1,1.71,1.62,4.93,4.93,0,0,1,0,4.75,4.28,4.28,0,0,1-1.71,1.61,5.46,5.46,0,0,1-2.58.59Zm-1.18,1h4.56a6.72,6.72,0,0,0,3.13-.71,5.17,5.17,0,0,0,2.11-2,5.93,5.93,0,0,0,0-5.81,5.2,5.2,0,0,0-2.11-2,6.72,6.72,0,0,0-3.13-.71H85.62ZM80,72l3.17-4v-.82h-7.2v1h5.72l-3.1,3.88v.85h.8a3.67,3.67,0,0,1,2.27.59,2.18,2.18,0,0,1,0,3.29,3.33,3.33,0,0,1-2.13.6,5.44,5.44,0,0,1-2-.36A4.13,4.13,0,0,1,76,76.11l-.56.91a4.92,4.92,0,0,0,1.74,1,6.68,6.68,0,0,0,2.29.39A5.31,5.31,0,0,0,81.73,78a3.08,3.08,0,0,0,1.37-1.18,3.15,3.15,0,0,0,.47-1.7,2.93,2.93,0,0,0-.92-2.24A4.2,4.2,0,0,0,80,72"/></g></svg>