<svg id="Ebene_1" data-name="Ebene 1" xmlns="http://www.w3.org/2000/svg" xmlns:xlink="http://www.w3.org/1999/xlink" viewBox="0 0 130 130"><defs><style>.cls-1,.cls-4{fill:none;}.cls-2{fill:#fff;}.cls-3{clip-path:url(#clip-path);}.cls-4{stroke:#000;stroke-linejoin:round;stroke-width:2px;}</style><clipPath id="clip-path"><rect class="cls-1" x="14.53" y="25.28" width="100.94" height="79.45"/></clipPath></defs><title>DAN_4396_d2p_Relaunch_Icons</title><polygon class="cls-2" points="29.5 47.48 29.5 103.72 114.47 103.72 114.47 61.61 100.34 47.48 29.5 47.48"/><g class="cls-3"><polygon class="cls-4" points="29.5 47.48 29.5 103.72 114.47 103.72 114.47 61.61 100.33 47.48 29.5 47.48"/></g><polyline points="100.33 47.48 100.33 61.61 114.47 61.61"/><g class="cls-3"><polyline class="cls-4" points="100.33 47.48 100.33 61.61 114.47 61.61"/><path d="M72.07,54.55A28.27,28.27,0,1,1,43.8,26.28Z"/><path class="cls-4" d="M72.07,54.55A28.27,28.27,0,1,1,43.8,26.28Z"/><path class="cls-2" d="M72.07,54.55A28.27,28.27,0,0,1,43.8,26.28Z"/><path class="cls-4" d="M72.07,54.55A28.27,28.27,0,0,1,43.8,26.28Z"/></g></svg>