<svg id="Ebene_1" data-name="Ebene 1" xmlns="http://www.w3.org/2000/svg" xmlns:xlink="http://www.w3.org/1999/xlink" viewBox="0 0 130 130"><defs><style>.cls-1,.cls-4{fill:none;}.cls-2{fill:#fff;}.cls-3{clip-path:url(#clip-path);}.cls-4{stroke:#000;stroke-linejoin:round;stroke-width:2px;}</style><clipPath id="clip-path"><rect class="cls-1" x="32.23" y="14.68" width="65.54" height="100.63"/></clipPath></defs><title>DAN_4396_d2p_Relaunch_Icons</title><polygon class="cls-2" points="82.66 92.8 33.23 106.68 33.37 29.56 82.79 15.68 82.66 92.8"/><g class="cls-3"><polygon class="cls-4" points="82.66 92.8 33.23 106.68 33.37 29.56 82.79 15.68 82.66 92.8"/></g><polygon class="cls-2" points="89.55 99.98 33.23 106.68 33.37 29.56 89.69 22.86 89.55 99.98"/><g class="cls-3"><polygon class="cls-4" points="89.55 99.98 33.23 106.68 33.37 29.56 89.69 22.86 89.55 99.98"/></g><rect class="cls-2" x="22.47" y="40.04" width="85.06" height="63.41" transform="translate(-6.84 136.63) rotate(-89.91)"/><g class="cls-3"><rect class="cls-4" x="22.47" y="40.04" width="85.06" height="63.41" transform="matrix(0, -1, 1, 0, -6.84, 136.63)"/></g><rect x="44.72" y="62.71" width="40.46" height="47.39" transform="translate(-21.56 151.2) rotate(-89.9)"/><path d="M40.3,65.13l-.08,42.46,49.39.07.07-42.45Zm2,2,45.39.07-.07,38.47-45.39-.07Z"/><line class="cls-4" x1="40.48" y1="57.93" x2="89.87" y2="58"/><line class="cls-4" x1="40.5" y1="51.35" x2="89.88" y2="51.42"/><line class="cls-4" x1="40.51" y1="44.17" x2="89.89" y2="44.24"/></svg>