<?xml version="1.0" encoding="utf-8"?>
<!-- Generator: Adobe Illustrator 23.0.6, SVG Export Plug-In . SVG Version: 6.00 Build 0)  -->
<svg version="1.1" id="Ebene_1" xmlns="http://www.w3.org/2000/svg" xmlns:xlink="http://www.w3.org/1999/xlink" x="0px" y="0px"
	 viewBox="0 0 93 93" style="enable-background:new 0 0 93 93;" xml:space="preserve">
<style type="text/css">
	.st0{clip-path:url(#SVGID_2_);fill:#FFFFFF;}
	.st1{clip-path:url(#SVGID_2_);fill:#1A1A18;}
</style>
<g>
	<defs>
		<rect id="SVGID_1_" x="1.5" y="1.5" width="90" height="90"/>
	</defs>
	<clipPath id="SVGID_2_">
		<use xlink:href="#SVGID_1_"  style="overflow:visible;"/>
	</clipPath>
	<path class="st0" d="M46.5,91.5c24.9,0,45-20.1,45-45s-20.1-45-45-45s-45,20.1-45,45S21.6,91.5,46.5,91.5"/>
	<path class="st1" d="M33.5,30.1v27.5h-3.4v-3.1c-1.4,2.1-3.9,3.3-7,3.3c-5.8,0-9.9-4.3-9.9-10c0-5.8,3.7-10,9.9-10
		c2.7,0,5.4,1.1,6.9,3.1V30.1H33.5z M23.5,54.6c3.6,0,6.5-2.7,6.5-6.9c0-4-2.7-6.9-6.5-6.9c-3.9,0-6.6,2.6-6.6,6.9
		C16.9,51.8,19.7,54.6,23.5,54.6 M69.8,37.8c5.8,0,9.9,3.7,9.9,10c0,5.9-4.1,10-9.9,10c-2.7,0-5.2-1.2-6.8-3.2v10.1h-3.6V37.9h3.5
		V41C64.5,38.8,66.9,37.8,69.8,37.8 M69.5,54.6c3.6,0,6.6-2.7,6.6-6.9c0-4-2.8-6.9-6.6-6.9c-3.8,0-6.6,2.7-6.6,6.9
		C62.9,51.8,65.7,54.6,69.5,54.6 M40.8,38.6c0,3.3,2.3,5.5,5.6,5.5c3.3,0,5.5-2.2,5.5-5.5c0-3.4-2.2-5.6-5.5-5.6
		C43.1,33,40.8,35.2,40.8,38.6 M37.2,38.6c0-5.3,3.7-8.8,9.2-8.8c5.5,0,9.1,3.5,9.1,8.8c0,3.4-2,5.6-4.7,8.2l-8,7.4h13v3.3H37v-2.7
		l8.8-7.8C40.6,46.7,37.2,43.3,37.2,38.6"/>
</g>
</svg>
