<svg xmlns="http://www.w3.org/2000/svg" xmlns:xlink="http://www.w3.org/1999/xlink" viewBox="0 0 1380 1200"><defs><style>.cls-1,.cls-10,.cls-14,.cls-3{fill:none;}.cls-12,.cls-2{fill:#00a5ff;}.cls-10,.cls-12,.cls-17,.cls-3,.cls-5,.cls-9{stroke:#000;}.cls-10,.cls-12,.cls-14,.cls-17,.cls-3,.cls-5,.cls-8,.cls-9{stroke-miterlimit:10;}.cls-3{stroke-width:8px;}.cls-4{isolation:isolate;}.cls-6{fill:url(#Muster_cyan);}.cls-7{fill:url(#Streifen_RZ);}.cls-15,.cls-8,.cls-9{fill:#fff;}.cls-8{stroke:#fff;}.cls-10,.cls-12,.cls-14,.cls-17,.cls-8,.cls-9{stroke-width:6px;}.cls-11{fill:#141413;}.cls-13{mix-blend-mode:multiply;}.cls-14{stroke:#0d87d7;}.cls-16{fill:url(#Streifen_2_RZ);}</style><pattern id="Muster_cyan" data-name="Muster cyan" width="56" height="55" patternTransform="translate(489.09 134.6) rotate(-21.91) scale(1.12)" patternUnits="userSpaceOnUse" viewBox="0 0 56 55"><rect class="cls-1" width="56" height="55"/><circle class="cls-2" cx="14.18" cy="14.01" r="2.83"/><circle class="cls-2" cx="41.82" cy="14.01" r="2.83"/><circle class="cls-2" cx="14.18" cy="40.99" r="2.83"/><circle class="cls-2" cx="41.82" cy="40.99" r="2.83"/></pattern><pattern id="Streifen_RZ" data-name="Streifen_RZ" width="94.05" height="94.05" patternTransform="translate(969.91 35.72) scale(0.73 0.73)" patternUnits="userSpaceOnUse" viewBox="0 0 94.05 94.05"><rect class="cls-1" width="94.05" height="94.05"/><line class="cls-3" x1="92.88" y1="189.26" x2="189.26" y2="92.88"/><line class="cls-3" x1="67.88" y1="167.26" x2="164.26" y2="70.88"/><line class="cls-3" x1="-1.17" y1="189.26" x2="95.21" y2="92.88"/><line class="cls-3" x1="-26.17" y1="167.26" x2="70.21" y2="70.88"/><line class="cls-3" x1="-95.21" y1="189.26" x2="1.17" y2="92.88"/><line class="cls-3" x1="92.88" y1="95.21" x2="189.26" y2="-1.17"/><line class="cls-3" x1="67.88" y1="73.21" x2="164.26" y2="-23.17"/><line class="cls-3" x1="-1.17" y1="95.21" x2="95.21" y2="-1.17"/><line class="cls-3" x1="-26.17" y1="73.21" x2="70.21" y2="-23.17"/><line class="cls-3" x1="-95.21" y1="95.21" x2="1.17" y2="-1.17"/><line class="cls-3" x1="92.88" y1="1.17" x2="189.26" y2="-95.21"/><line class="cls-3" x1="-1.17" y1="1.17" x2="95.21" y2="-95.21"/><line class="cls-3" x1="-95.21" y1="1.17" x2="1.17" y2="-95.21"/></pattern><pattern id="Streifen_2_RZ" data-name="Streifen_2_RZ" width="94.05" height="94.05" patternTransform="translate(973.98 72.72) scale(0.73 0.73)" patternUnits="userSpaceOnUse" viewBox="0 0 94.05 94.05"><rect class="cls-1" width="94.05" height="94.05"/><line class="cls-3" x1="72.92" y1="47.02" x2="209.22" y2="47.02"/><line class="cls-3" x1="72.92" y1="78.14" x2="209.22" y2="78.14"/><line class="cls-3" x1="72.92" y1="15.9" x2="209.22" y2="15.91"/><line class="cls-3" x1="-21.13" y1="47.02" x2="115.17" y2="47.02"/><line class="cls-3" x1="-21.13" y1="78.14" x2="115.17" y2="78.14"/><line class="cls-3" x1="-21.13" y1="15.9" x2="115.17" y2="15.91"/><line class="cls-3" x1="-115.17" y1="47.02" x2="21.13" y2="47.02"/><line class="cls-3" x1="-115.17" y1="78.14" x2="21.13" y2="78.14"/><line class="cls-3" x1="-115.17" y1="15.9" x2="21.13" y2="15.91"/></pattern></defs><title>Illustrationen_Standarts (@x4)</title><g class="cls-4"><g id="Ebene_1" data-name="Ebene 1"><rect class="cls-5" x="1.66" width="1380" height="1200"/><rect class="cls-6" x="341.92" y="171.42" width="856" height="393.3" rx="170"/><rect class="cls-2" x="544.92" y="295.34" width="441.99" height="578"/><path d="M983.91,298.34v572h-436v-572h436m6-6h-448v584h448v-584Z"/><rect class="cls-2" x="592.92" y="341.34" width="313" height="493"/><rect class="cls-7" x="595.92" y="344.34" width="307" height="487"/><path d="M899.92,347.34v481h-301v-481h301m6-6h-313v493h313v-493Z"/><path class="cls-2" d="M713.92,862.34h-159l26,39s20.19,21,23.6,21h95.77Z"/><line class="cls-8" x1="930.92" y1="341.34" x2="930.92" y2="507.34"/><line class="cls-8" x1="945.92" y1="341.34" x2="945.92" y2="563.34"/><line class="cls-8" x1="959.92" y1="341.34" x2="959.92" y2="547.34"/><rect class="cls-9" x="289.92" y="227.34" width="366" height="469"/><line class="cls-10" x1="343.92" y1="326.34" x2="508.92" y2="326.34"/><line class="cls-10" x1="343.92" y1="420.34" x2="508.92" y2="420.34"/><line class="cls-10" x1="343.92" y1="513.34" x2="508.92" y2="513.34"/><rect class="cls-10" x="542.92" y="307.34" width="38" height="38"/><rect class="cls-10" x="542.92" y="401.34" width="38" height="38"/><rect class="cls-10" x="542.92" y="494.34" width="38" height="38"/><line class="cls-10" x1="343.92" y1="605.34" x2="508.92" y2="605.34"/><rect class="cls-10" x="542.92" y="586.34" width="38" height="38"/><polygon class="cls-11" points="576.25 355.54 558.95 328.14 566.59 323.31 577.09 339.93 617.14 289.34 624.22 294.95 576.25 355.54"/><polygon class="cls-11" points="576.25 449.54 558.95 422.14 566.59 417.31 577.09 433.93 617.14 383.34 624.22 388.95 576.25 449.54"/><polygon class="cls-11" points="576.25 543.54 558.95 516.14 566.59 511.31 577.09 527.93 617.14 477.34 624.22 482.95 576.25 543.54"/><polygon points="903.92 528.34 600.92 832.87 905.92 834.34 903.92 528.34"/><path class="cls-12" d="M614.92,922.34h370.5a71.5,71.5,0,1,0,0-143h-370a71.5,71.5,0,1,1-71.5,71.5"/><path class="cls-13" d="M984.92,779.34s34.56,73.33-18,106-240.84,37-240.84,37l360.84,4,26-84-24-53Z"/><path class="cls-14" d="M985.42,779.34a71.5,71.5,0,1,1,0,143H639.92"/><path class="cls-15" d="M419.23,889.28l-15.37-23.4L312,926.27a19.4,19.4,0,0,0-14.32,2.83l-96.95,63.7a19.56,19.56,0,0,0-5.59,27h0a19.57,19.57,0,0,0,27,5.59L319,961.69a19.38,19.38,0,0,0,8.28-12Z"/><path class="cls-16" d="M211.44,1025.58a16.48,16.48,0,0,1-9.11-30.27l96.94-63.7a16.28,16.28,0,0,1,9-2.68,17.28,17.28,0,0,1,3.13.29l1.19.23L403,870l12.08,18.39-90.42,59.41L324.4,949a16.45,16.45,0,0,1-7,10.18l-96.95,63.7a16.35,16.35,0,0,1-9,2.69Z"/><path d="M402.14,874.19l8.79,13.37L324,944.66,322,946l-.53,2.37a13.42,13.42,0,0,1-5.72,8.32l-96.95,63.7a13.35,13.35,0,0,1-7.36,2.2A13.49,13.49,0,0,1,204,997.82l96.94-63.7a13.27,13.27,0,0,1,7.34-2.19,13.89,13.89,0,0,1,2.57.24l2.38.45,2-1.33,86.9-57.1m1.72-8.31L312,926.27a19.87,19.87,0,0,0-3.69-.34,19.29,19.29,0,0,0-10.63,3.17l-96.95,63.7a19.5,19.5,0,0,0,21.42,32.6L319,961.69a19.38,19.38,0,0,0,8.28-12l91.91-60.39-15.37-23.4Z"/><ellipse class="cls-15" cx="467.85" cy="838.18" rx="102.5" ry="110.64" transform="translate(-484.26 960.28) rotate(-68.14)"/><path class="cls-16" d="M473.73,938.86A114.45,114.45,0,0,1,380.32,891c-16.52-23.3-22.58-50.76-17.08-77.31,5.3-25.53,20.81-47.23,43.67-61.1a106.12,106.12,0,0,1,55-15.09,114.45,114.45,0,0,1,93.41,47.86c16.52,23.3,22.59,50.75,17.08,77.31-5.3,25.53-20.81,47.23-43.67,61.09A106,106,0,0,1,473.73,938.86Z"/><path d="M462,734.5v6a113.22,113.22,0,0,1,50.55,12,110.25,110.25,0,0,1,40.42,34.55c16,22.62,21.92,49.24,16.58,75-5.13,24.71-20.14,45.71-42.29,59.14a103,103,0,0,1-53.49,14.66,113.25,113.25,0,0,1-50.55-12,110.25,110.25,0,0,1-40.42-34.55c-16-22.62-21.92-49.24-16.58-75,5.13-24.71,20.14-45.71,42.29-59.14A103,103,0,0,1,462,740.5v-6m0,0A108.76,108.76,0,0,0,405.36,750c-49.69,30.13-62,94-27.49,142.71,22.46,31.69,59.23,49.12,95.86,49.12a108.86,108.86,0,0,0,56.6-15.53c49.69-30.13,62-94,27.49-142.71C535.36,751.93,498.59,734.5,462,734.5Z"/><rect class="cls-9" x="291.57" y="886.12" width="120" height="28" transform="translate(-436.54 340.93) rotate(-33.31)"/><circle class="cls-9" cx="454.78" cy="832.3" r="102.5"/><circle class="cls-17" cx="454.78" cy="832.3" r="82.2"/><rect class="cls-9" x="172.53" y="947.34" width="155" height="39" rx="19.5" transform="translate(-489.86 296.13) rotate(-33.31)"/><path class="cls-15" d="M401.11,891a82.2,82.2,0,0,1,115.82-112.5A82.2,82.2,0,1,0,407.67,899.66,83.23,83.23,0,0,1,401.11,891Z"/><path class="cls-16" d="M392,880.52c-1.17-1.53-2.29-3.1-3.36-4.73A79.21,79.21,0,0,1,496.41,764.91,85.35,85.35,0,0,0,423,774.66,85.24,85.24,0,0,0,392,880.52Z"/><path d="M454.68,756.09a76.7,76.7,0,0,1,15.48,1.58h-.46a88.17,88.17,0,0,0-87.58,97.62,76.22,76.22,0,0,1,72.56-99.2m0-6a82.2,82.2,0,0,0-47,149.57,83.23,83.23,0,0,1-6.56-8.65,82.21,82.21,0,0,1,115.82-112.5,82.23,82.23,0,0,0-62.25-28.42Z"/></g></g></svg>