<svg id="Ebene_1" data-name="Ebene 1" xmlns="http://www.w3.org/2000/svg" xmlns:xlink="http://www.w3.org/1999/xlink" viewBox="0 0 130 130"><defs><style>.cls-1,.cls-4{fill:none;}.cls-2{fill:#fff;}.cls-3{clip-path:url(#clip-path);}.cls-4{stroke:#000;stroke-linejoin:round;stroke-width:2px;}</style><clipPath id="clip-path"><rect class="cls-1" x="35.5" y="14.3" width="58.99" height="101.4"/></clipPath></defs><title>DAN_4396_d2p_Relaunch_Icons</title><rect class="cls-2" x="11.75" y="40.16" width="92.15" height="42.5" transform="translate(-3.69 119.12) rotate(-89.9)"/><g class="cls-3"><rect class="cls-4" x="11.75" y="40.16" width="92.15" height="42.5" transform="matrix(0, -1, 1, 0, -3.69, 119.12)"/></g><polygon class="cls-2" points="78.94 100.34 50.86 107.45 51 29.66 79.08 15.37 78.94 100.34"/><g class="cls-3"><polygon class="cls-4" points="78.94 100.34 50.86 107.45 51 29.66 79.08 15.37 78.94 100.34"/></g><rect class="cls-2" x="29.7" y="50.93" width="84.97" height="42.5" transform="matrix(0, -1, 1, 0, -0.12, 144.24)"/><g class="cls-3"><rect class="cls-4" x="29.7" y="50.93" width="84.97" height="42.5" transform="matrix(0, -1, 1, 0, -0.12, 144.24)"/></g><rect x="51.68" y="73.45" width="40.45" height="26.03" transform="translate(-14.68 158.21) rotate(-89.9)"/><path d="M57.93,65.21l-.07,42.45,28,0L86,65.26Zm2,2,24,0-.07,38.46-24,0Z"/><line class="cls-4" x1="58.05" y1="58" x2="86.07" y2="58.04"/><line class="cls-4" x1="58.06" y1="51.41" x2="86.08" y2="51.46"/><line class="cls-4" x1="58.07" y1="44.23" x2="86.09" y2="44.28"/></svg>