<svg id="Ebene_1" data-name="Ebene 1" xmlns="http://www.w3.org/2000/svg" xmlns:xlink="http://www.w3.org/1999/xlink" viewBox="0 0 130 130"><defs><style>.cls-1,.cls-3{fill:none;}.cls-2{clip-path:url(#clip-path);}.cls-3{stroke:#000;stroke-linejoin:round;stroke-width:2px;}.cls-4{fill:#fff;}</style><clipPath id="clip-path"><rect class="cls-1" x="14.39" y="25.02" width="101.21" height="79.95"/></clipPath></defs><title>DAN_4396_d2p_Relaunch_Icons</title><g class="cls-2"><path d="M112.1,43.17q.56-5.47,1.47-10.93l.43-2.56a2.65,2.65,0,0,0-3-3.05l-2.56.43q-5.44.92-10.93,1.47C92.52,27,79.06,26,72.09,26S51.65,27,46.71,28.53Q41.24,28,35.79,27.06l-2.56-.43a2.65,2.65,0,0,0-3,3.05l.42,2.56q.91,5.44,1.48,10.93a62,62,0,0,0-2.51,18.29,61.93,61.93,0,0,0,2.51,18.28q-.57,5.49-1.48,10.93l-.42,2.56a2.65,2.65,0,0,0,3,3l2.56-.43q5.45-.9,10.92-1.47c4.94,1.56,18.41,2.51,25.38,2.51s20.43-1,25.37-2.51q5.48.57,10.93,1.47l2.56.43a2.65,2.65,0,0,0,3-3l-.43-2.56q-.91-5.44-1.47-10.93a62.26,62.26,0,0,0,2.51-18.28,62.38,62.38,0,0,0-2.51-18.29"/><path class="cls-3" d="M112.1,43.17q.56-5.47,1.47-10.93l.43-2.56a2.65,2.65,0,0,0-3-3.05l-2.56.43q-5.44.92-10.93,1.47C92.52,27,79.06,26,72.09,26S51.65,27,46.71,28.53Q41.24,28,35.79,27.06l-2.56-.43a2.65,2.65,0,0,0-3,3.05l.42,2.56q.91,5.44,1.48,10.93a62,62,0,0,0-2.51,18.29,61.93,61.93,0,0,0,2.51,18.28q-.57,5.49-1.48,10.93l-.42,2.56a2.65,2.65,0,0,0,3,3l2.56-.43q5.45-.9,10.92-1.47c4.94,1.56,18.41,2.51,25.38,2.51s20.43-1,25.37-2.51q5.48.57,10.93,1.47l2.56.43a2.65,2.65,0,0,0,3-3l-.43-2.56q-.91-5.44-1.47-10.93a62.26,62.26,0,0,0,2.51-18.28A62.38,62.38,0,0,0,112.1,43.17Z"/><path class="cls-4" d="M97.92,50.26q.57-5.49,1.48-10.93l.42-2.56a2.65,2.65,0,0,0-3-3.05l-2.55.43q-5.46.9-10.93,1.47c-4.94-1.56-18.41-2.51-25.38-2.51s-20.43,1-25.37,2.51q-5.47-.57-10.93-1.47l-2.56-.43A2.65,2.65,0,0,0,16,36.77l.43,2.56q.91,5.45,1.47,10.93a62.26,62.26,0,0,0-2.51,18.28A62.38,62.38,0,0,0,17.9,86.83q-.55,5.48-1.47,10.93L16,100.32a2.65,2.65,0,0,0,3.05,3.05l2.56-.43q5.45-.91,10.93-1.47C37.48,103,50.94,104,57.91,104s20.44-1,25.38-2.51q5.47.56,10.93,1.47l2.55.43a2.65,2.65,0,0,0,3-3.05l-.42-2.56q-.91-5.45-1.48-10.93a62,62,0,0,0,2.51-18.29,61.93,61.93,0,0,0-2.51-18.28"/><path class="cls-3" d="M97.92,50.26q.57-5.49,1.48-10.93l.42-2.56a2.65,2.65,0,0,0-3-3.05l-2.55.43q-5.46.9-10.93,1.47c-4.94-1.56-18.41-2.51-25.38-2.51s-20.43,1-25.37,2.51q-5.47-.57-10.93-1.47l-2.56-.43A2.65,2.65,0,0,0,16,36.77l.43,2.56q.91,5.45,1.47,10.93a62.26,62.26,0,0,0-2.51,18.28A62.38,62.38,0,0,0,17.9,86.83q-.55,5.48-1.47,10.93L16,100.32a2.65,2.65,0,0,0,3.05,3.05l2.56-.43q5.45-.91,10.93-1.47C37.48,103,50.94,104,57.91,104s20.44-1,25.38-2.51q5.47.56,10.93,1.47l2.55.43a2.65,2.65,0,0,0,3-3.05l-.42-2.56q-.91-5.45-1.48-10.93a62,62,0,0,0,2.51-18.29A61.93,61.93,0,0,0,97.92,50.26Z"/></g></svg>