<svg id="Ebene_1" data-name="Ebene 1" xmlns="http://www.w3.org/2000/svg" xmlns:xlink="http://www.w3.org/1999/xlink" viewBox="0 0 130 130"><defs><style>.cls-1,.cls-3{fill:none;}.cls-2{clip-path:url(#clip-path);}.cls-3{stroke:#000;stroke-linejoin:round;stroke-width:2px;}.cls-4{fill:#fff;}</style><clipPath id="clip-path"><rect class="cls-1" x="32.11" y="10.85" width="65.78" height="108.3"/></clipPath></defs><title>DAN_4396_d2p_Relaunch_Icons</title><g class="cls-2"><path d="M88.28,104H55.9a8.62,8.62,0,0,1-8.62-8.62V20.46a8.62,8.62,0,0,1,8.62-8.61H88.28a8.62,8.62,0,0,1,8.61,8.61v74.9A8.62,8.62,0,0,1,88.28,104"/><rect class="cls-3" x="47.28" y="11.85" width="49.61" height="92.13" rx="8.61"/><path class="cls-4" d="M65,26H57.91a3.54,3.54,0,0,1,0-7.08H65A3.54,3.54,0,1,1,65,26"/><path class="cls-3" d="M65,26H57.91a3.54,3.54,0,0,1,0-7.08H65A3.54,3.54,0,1,1,65,26Z"/><path class="cls-4" d="M74.72,118.15H41.11a8,8,0,0,1-8-8V34a8,8,0,0,1,8-8H74.72a8,8,0,0,1,8,8v76.13a8,8,0,0,1-8,8"/><rect class="cls-3" x="33.11" y="26.02" width="49.61" height="92.13" rx="8"/><path class="cls-4" d="M50.83,40.2H43.74a3.55,3.55,0,0,1,0-7.09h7.09a3.55,3.55,0,0,1,0,7.09"/><path class="cls-3" d="M50.83,40.2H43.74a3.55,3.55,0,0,1,0-7.09h7.09a3.55,3.55,0,0,1,0,7.09Z"/></g></svg>