<svg id="Ebene_1" data-name="Ebene 1" xmlns="http://www.w3.org/2000/svg" xmlns:xlink="http://www.w3.org/1999/xlink" viewBox="0 0 130 130"><defs><style>.cls-1,.cls-3{fill:none;}.cls-2{clip-path:url(#clip-path);}.cls-3{stroke:#000;stroke-linejoin:round;stroke-width:2px;}.cls-4{fill:#fff;}</style><clipPath id="clip-path"><rect class="cls-1" x="12" y="14.41" width="106.01" height="101.18"/></clipPath></defs><title>DAN_4396_d2p_Relaunch_Icons</title><polygon points="117 107.38 46.4 107.38 39.22 64.7 109.82 64.7 117 107.38"/><g class="cls-2"><polygon class="cls-3" points="117 107.38 46.4 107.38 39.22 64.7 109.82 64.7 117 107.38"/></g><polygon points="49.16 81.29 13 93.15 13.11 27.27 49.27 15.41 49.16 81.29"/><g class="cls-2"><polygon class="cls-3" points="49.16 81.29 13 93.15 13.11 27.27 49.27 15.41 49.16 81.29"/></g><rect class="cls-4" x="0.77" y="39.25" width="72.66" height="48.1" transform="translate(-26.26 100.29) rotate(-89.9)"/><g class="cls-2"><rect class="cls-3" x="0.77" y="39.25" width="72.66" height="48.1" transform="translate(-26.26 100.29) rotate(-89.9)"/></g><polygon class="cls-4" points="20.42 114.47 95.5 114.59 109.56 64.89 34.48 64.77 20.42 114.47"/><g class="cls-2"><polygon class="cls-3" points="20.42 114.47 34.48 64.77 109.56 64.89 95.5 114.59 20.42 114.47"/></g></svg>