<svg id="Ebene_1" data-name="Ebene 1" xmlns="http://www.w3.org/2000/svg" xmlns:xlink="http://www.w3.org/1999/xlink" viewBox="0 0 130 130"><defs><style>.cls-1,.cls-3{fill:none;}.cls-2{clip-path:url(#clip-path);}.cls-3{stroke:#000;stroke-linejoin:round;stroke-width:2px;}.cls-4{fill:#fff;}</style><clipPath id="clip-path"><rect class="cls-1" x="32.2" y="14.68" width="65.6" height="100.63"/></clipPath></defs><title>DAN_4396_d2p_Relaunch_Icons</title><rect x="22.42" y="40.05" width="85.06" height="63.37" transform="translate(-6.89 136.58) rotate(-89.91)"/><g class="cls-2"><rect class="cls-3" x="22.42" y="40.05" width="85.06" height="63.37" transform="translate(-6.89 136.58) rotate(-89.91)"/></g><polygon class="cls-4" points="82.67 36.58 82.67 114.32 96.8 114.32 96.7 29.26 82.67 36.58"/><g class="cls-2"><polygon class="cls-3" points="96.7 29.26 82.67 36.58 82.67 114.32 96.8 114.32 96.7 29.26"/></g><polygon class="cls-4" points="33.2 100.18 33.2 114.06 96.57 114.32 89.73 100.18 33.2 100.18"/><g class="cls-2"><polygon class="cls-3" points="96.57 114.32 89.73 100.18 33.2 100.18 33.2 114.06 96.57 114.32"/></g><polygon class="cls-4" points="33.33 29.56 33.2 114.06 61.47 100.18 61.6 15.68 33.33 29.56"/><g class="cls-2"><polygon class="cls-3" points="61.47 100.18 33.2 114.06 33.33 29.56 61.6 15.68 61.47 100.18"/></g></svg>