<svg id="Ebene_1" data-name="Ebene 1" xmlns="http://www.w3.org/2000/svg" xmlns:xlink="http://www.w3.org/1999/xlink" viewBox="0 0 130 130"><defs><style>.cls-1,.cls-3{fill:none;}.cls-2{clip-path:url(#clip-path);}.cls-3{stroke:#000;stroke-linejoin:round;stroke-width:2px;}.cls-4{fill:#fff;}</style><clipPath id="clip-path"><rect class="cls-1" x="10.88" y="21.31" width="108.24" height="87.39"/></clipPath></defs><title>DAN_4396_d2p_Relaunch_Icons</title><g class="cls-2"><path d="M112.07,92.79l-20-20a3.54,3.54,0,0,1,5-5l20,20a3.54,3.54,0,0,1-5,5"/><path class="cls-3" d="M112.07,92.79l-20-20a3.54,3.54,0,0,1,5-5l20,20a3.54,3.54,0,0,1-5,5Z"/></g><rect class="cls-4" x="1.09" y="33.21" width="85.29" height="63.58" transform="translate(-21.33 108.64) rotate(-89.91)"/><g class="cls-2"><rect class="cls-3" x="1.09" y="33.21" width="85.29" height="63.58" transform="translate(-21.33 108.64) rotate(-89.91)"/></g><rect x="23.4" y="55.94" width="40.58" height="47.52" transform="translate(-36.09 123.25) rotate(-89.9)"/><path d="M19,58.38,18.89,101l49.52.08.08-42.58Zm2,2,45.52.07L66.42,99,20.9,99Z"/><line class="cls-3" x1="19.16" y1="51.15" x2="54.34" y2="51.23"/><line class="cls-3" x1="19.17" y1="44.55" x2="54.35" y2="44.62"/><line class="cls-3" x1="19.18" y1="37.35" x2="54.36" y2="37.43"/><g class="cls-2"><path class="cls-4" d="M103.94,58.39A21.26,21.26,0,1,1,82.68,37.13a21.25,21.25,0,0,1,21.26,21.26"/><circle class="cls-3" cx="82.68" cy="58.39" r="21.26"/><path class="cls-4" d="M96.86,58.39A14.18,14.18,0,1,1,82.68,44.22,14.18,14.18,0,0,1,96.86,58.39"/><circle class="cls-3" cx="82.68" cy="58.39" r="14.17"/></g><line class="cls-3" x1="82.68" y1="44.22" x2="82.68" y2="72.57"/><g class="cls-2"><path d="M69.65,51.31H75.6V70.67s-10.19-4.3-5.95-19.36"/></g></svg>