<svg id="Ebene_1" data-name="Ebene 1" xmlns="http://www.w3.org/2000/svg" xmlns:xlink="http://www.w3.org/1999/xlink" viewBox="0 0 130 130"><defs><style>.cls-1,.cls-4{fill:none;}.cls-2{fill:#fff;}.cls-3{clip-path:url(#clip-path);}.cls-4{stroke:#000;stroke-linejoin:round;stroke-width:2px;}</style><clipPath id="clip-path"><rect class="cls-1" x="7.46" y="14.53" width="115.07" height="100.94"/></clipPath></defs><title>DAN_4396_d2p_Relaunch_Icons</title><rect class="cls-2" x="29.66" y="72.07" width="49.69" height="42.4"/><g class="cls-3"><rect class="cls-4" x="29.66" y="72.07" width="49.69" height="42.4"/></g><rect class="cls-2" x="50.87" y="29.67" width="49.69" height="28.27"/><rect class="cls-4" x="50.87" y="29.67" width="49.69" height="28.27"/><polygon class="cls-2" points="79.35 72.07 79.35 114.47 100.34 100.33 100.34 57.93 79.35 72.07"/><g class="cls-3"><polygon class="cls-4" points="79.35 72.07 100.33 57.93 100.33 100.33 79.35 114.47 79.35 72.07"/></g><polygon class="cls-2" points="50.87 29.66 57.93 15.53 93.27 15.53 100.56 29.66 50.87 29.66"/><g class="cls-3"><polygon class="cls-4" points="50.87 29.66 57.93 15.53 93.27 15.53 100.56 29.66 50.87 29.66"/><polygon class="cls-4" points="50.87 57.93 29.66 57.93 8.46 72.07 29.66 72.07 50.87 57.93"/></g><polygon class="cls-2" points="79.35 72.07 100.33 72.07 121.54 57.93 100.33 57.93 79.35 72.07"/><g class="cls-3"><polygon class="cls-4" points="79.35 72.07 100.33 72.07 121.54 57.93 100.33 57.93 79.35 72.07"/></g><polygon points="100.33 57.93 50.87 57.93 29.66 72.07 79.35 72.07 100.33 57.93"/><polygon class="cls-4" points="100.33 57.93 50.87 57.93 29.66 72.07 79.35 72.07 100.33 57.93"/></svg>